<svg xmlns="http://www.w3.org/2000/svg" width="24.038" height="23.423" viewBox="0 0 24.038 23.423">
  <path id="Icon_ionic-ios-heart" data-name="Icon ionic-ios-heart" d="M19.48,3.938h-.053a6.028,6.028,0,0,0-5.033,2.755A6.028,6.028,0,0,0,9.361,3.938H9.308A5.989,5.989,0,0,0,3.375,9.924a12.9,12.9,0,0,0,2.532,7.03,44.377,44.377,0,0,0,8.487,8.174,44.377,44.377,0,0,0,8.487-8.174,12.9,12.9,0,0,0,2.532-7.03A5.989,5.989,0,0,0,19.48,3.938Z" transform="translate(-2.375 -2.938)" fill="none" stroke="#20a9ea" stroke-width="2"/>
</svg>
